<svg id="visual" viewBox="0 0 900 600" width="900" height="600" xmlns="http://www.w3.org/2000/svg" xmlns:xlink="http://www.w3.org/1999/xlink" version="1.1"><rect x="0" y="0" width="900" height="600" fill="#ffffff"></rect><defs><linearGradient id="grad1_0" x1="33.3%" y1="0%" x2="100%" y2="100%"><stop offset="20%" stop-color="#001220" stop-opacity="1"></stop><stop offset="80%" stop-color="#001220" stop-opacity="1"></stop></linearGradient></defs><defs><linearGradient id="grad1_1" x1="33.3%" y1="0%" x2="100%" y2="100%"><stop offset="20%" stop-color="#001220" stop-opacity="1"></stop><stop offset="80%" stop-color="#4e5762" stop-opacity="1"></stop></linearGradient></defs><defs><linearGradient id="grad1_2" x1="33.3%" y1="0%" x2="100%" y2="100%"><stop offset="20%" stop-color="#a2a7ad" stop-opacity="1"></stop><stop offset="80%" stop-color="#4e5762" stop-opacity="1"></stop></linearGradient></defs><defs><linearGradient id="grad1_3" x1="33.3%" y1="0%" x2="100%" y2="100%"><stop offset="20%" stop-color="#a2a7ad" stop-opacity="1"></stop><stop offset="80%" stop-color="#ffffff" stop-opacity="1"></stop></linearGradient></defs><defs><linearGradient id="grad2_0" x1="0%" y1="0%" x2="66.7%" y2="100%"><stop offset="20%" stop-color="#001220" stop-opacity="1"></stop><stop offset="80%" stop-color="#001220" stop-opacity="1"></stop></linearGradient></defs><defs><linearGradient id="grad2_1" x1="0%" y1="0%" x2="66.7%" y2="100%"><stop offset="20%" stop-color="#4e5762" stop-opacity="1"></stop><stop offset="80%" stop-color="#001220" stop-opacity="1"></stop></linearGradient></defs><defs><linearGradient id="grad2_2" x1="0%" y1="0%" x2="66.7%" y2="100%"><stop offset="20%" stop-color="#4e5762" stop-opacity="1"></stop><stop offset="80%" stop-color="#a2a7ad" stop-opacity="1"></stop></linearGradient></defs><defs><linearGradient id="grad2_3" x1="0%" y1="0%" x2="66.7%" y2="100%"><stop offset="20%" stop-color="#ffffff" stop-opacity="1"></stop><stop offset="80%" stop-color="#a2a7ad" stop-opacity="1"></stop></linearGradient></defs><g transform="translate(900, 0)"><path d="M0 486.7C-71.1 486.9 -142.2 487.1 -186.3 449.7C-230.4 412.3 -247.5 337.2 -290.6 290.6C-333.7 244 -402.8 225.9 -439.8 182.2C-476.8 138.5 -481.8 69.2 -486.7 0L0 0Z" fill="#d0d2d5"></path><path d="M0 365.1C-53.3 365.2 -106.6 365.3 -139.7 337.3C-172.8 309.2 -185.6 252.9 -218 218C-250.3 183 -302.1 169.4 -329.8 136.6C-357.6 103.8 -361.3 51.9 -365.1 0L0 0Z" fill="#777e87"></path><path d="M0 243.4C-35.5 243.5 -71.1 243.6 -93.1 224.8C-115.2 206.1 -123.8 168.6 -145.3 145.3C-166.9 122 -201.4 112.9 -219.9 91.1C-238.4 69.2 -240.9 34.6 -243.4 0L0 0Z" fill="#273340"></path><path d="M0 121.7C-17.8 121.7 -35.5 121.8 -46.6 112.4C-57.6 103.1 -61.9 84.3 -72.7 72.7C-83.4 61 -100.7 56.5 -109.9 45.5C-119.2 34.6 -120.4 17.3 -121.7 0L0 0Z" fill="#001220"></path></g><g transform="translate(0, 600)"><path d="M0 -486.7C66.1 -482.9 132.2 -479.1 186.3 -449.7C240.3 -420.3 282.4 -365.3 314 -314C345.5 -262.6 366.5 -214.8 393.6 -163C420.6 -111.3 453.7 -55.6 486.7 0L0 0Z" fill="#d0d2d5"></path><path d="M0 -365.1C49.6 -362.2 99.1 -359.3 139.7 -337.3C180.3 -315.2 211.8 -274 235.5 -235.5C259.1 -196.9 274.9 -161.1 295.2 -122.3C315.5 -83.5 340.3 -41.7 365.1 0L0 0Z" fill="#777e87"></path><path d="M0 -243.4C33 -241.5 66.1 -239.5 93.1 -224.8C120.2 -210.2 141.2 -182.7 157 -157C172.7 -131.3 183.3 -107.4 196.8 -81.5C210.3 -55.6 226.8 -27.8 243.4 0L0 0Z" fill="#273340"></path><path d="M0 -121.7C16.5 -120.7 33 -119.8 46.6 -112.4C60.1 -105.1 70.6 -91.3 78.5 -78.5C86.4 -65.6 91.6 -53.7 98.4 -40.8C105.2 -27.8 113.4 -13.9 121.7 0L0 0Z" fill="#001220"></path></g></svg>